<?xml version="1.0" encoding="iso-8859-1"?>
<svg xmlns="http://www.w3.org/2000/svg" xmlns:xlink="http://www.w3.org/1999/xlink" version="1.1" viewBox="0 0 463 463" enable-background="new 0 0 463 463" width="512px" height="512px">
  <path d="m455.5,360h-3.58l-136.202-252.068c-0.77-1.425-1.98-2.563-3.451-3.242l-34.594-15.996c-3.595-1.663-7.863-0.243-9.745,3.241l-44.384,82.111-12.935-19.402c-1.19-1.785-3.087-2.975-5.211-3.269-2.127-0.295-4.274,0.335-5.904,1.73l-26.41,22.591-24.15-2.601c-2.782-0.297-5.494,0.972-7.044,3.298l-122.349,183.607h-12.041c-4.142,0-7.5,3.358-7.5,7.5s3.358,7.5 7.5,7.5h103.999c1.305,0 2.588-0.341 3.721-0.988l52.279-29.874 52.279,29.874c1.154,0.659 2.438,0.988 3.721,0.988 1.336,0 2.672-0.357 3.859-1.069l36.141-21.685 36.143,21.685c1.166,0.7 2.499,1.069 3.858,1.069h152c4.142,0 7.5-3.358 7.5-7.5s-3.358-7.5-7.5-7.5zm-177.726-254.734l25.934,11.991 33.22,61.48-31.056-10.352c-2.694-0.897-5.667-0.197-7.675,1.812l-19.253,19.253-32.584-26.067 31.414-58.117zm-44.217,81.801l5.553-10.274 35.705,28.564c1.376,1.101 3.033,1.644 4.683,1.644 1.929,0 3.849-0.741 5.305-2.197l20.723-20.722 41.822,13.941 87.522,161.977h-87.356l-114.619-171.928c0.241-0.314 0.468-0.645 0.662-1.005zm-81.706,1.43l22.846,2.46c2.059,0.223 4.108-0.415 5.679-1.758l22.443-19.199 35.497,53.245-15.628,20.837-25.885-25.884c-1.49-1.49-3.539-2.292-5.643-2.189-2.105,0.095-4.073,1.072-5.422,2.691l-35.293,42.352-30.619-24.495 32.025-48.06zm115.507,148.572c-2.376-1.425-5.343-1.425-7.718,0l-36.233,21.74-52.187-29.821c-2.306-1.317-5.137-1.317-7.442,0l-54.271,31.012h-71.94l73.91-110.915 35.339,28.271c1.382,1.105 3.036,1.644 4.681,1.644 2.151,0 4.285-0.921 5.766-2.699l34.742-41.69 26.193,26.192c1.538,1.538 3.666,2.336 5.835,2.178 2.168-0.154 4.164-1.242 5.468-2.981l17.64-23.52 82.345,123.52h-23.909l-38.219-22.931z" fill="#47b475"/>
</svg>
