<?xml version="1.0" encoding="utf-8"?>
<!-- Generator: Adobe Illustrator 17.0.0, SVG Export Plug-In . SVG Version: 6.00 Build 0)  -->
<!DOCTYPE svg PUBLIC "-//W3C//DTD SVG 1.1//EN" "http://www.w3.org/Graphics/SVG/1.1/DTD/svg11.dtd">
<svg version="1.1" id="Layer_1" xmlns="http://www.w3.org/2000/svg" xmlns:xlink="http://www.w3.org/1999/xlink" x="0px" y="0px"
	 width="500px" height="500px" viewBox="0 0 500 500" enable-background="new 0 0 500 500" xml:space="preserve">
<g>
	<path fill="#B7B7B7" d="M246.341,19.102c-130.471,0-236.238,105.767-236.238,236.238S115.87,491.578,246.341,491.578
		S482.579,385.811,482.579,255.34S376.811,19.102,246.341,19.102z M378.971,341.318c-0.015,9.604-2.219,18.675-7.689,26.737
		c-6.997,10.311-16.852,16.003-29.218,16.043c-58.106,0.187-116.215,0.267-174.32-0.022c-21.623-0.108-47.805-18.735-46.882-47.609
		C121.99,301.169,121,265.806,121,230.471c0-2.151,0-4.471,0-7.471c24,0,46.349,0,69.287,0c-14.667,40-7.961,72.604,28.612,95.889
		c25.002,15.918,57.68,12.577,81.012-6.003C325.961,292.141,332.042,265,319.372,223c19.613,0,38.628,0,59.628,0
		c0,2,0,3.982,0,5.834C379,266.329,379.03,303.823,378.971,341.318z M197.401,257.087c-0.097-31.873,25.679-57.701,57.568-57.685
		c31.948,0.016,57.317,25.591,57.293,57.756c-0.024,31.979-25.843,57.722-57.68,57.513
		C223.068,314.464,197.497,288.712,197.401,257.087z M378.993,206.354c-2.548,0.137-4.631,0.344-6.714,0.347
		c-20.219,0.023-40.44,0.143-60.655-0.132c-2.995-0.041-6.603-1.249-8.848-3.176c-28.621-24.563-67.485-24.451-96.158,0.417
		c-1.631,1.414-4.015,2.761-6.058,2.776c-25.322,0.18-50.645,0.112-75.968,0.081c-0.93-0.001-1.859-0.269-2.999-0.446
		c0-14.35-1.334-28.585,0.319-42.464c2.365-19.866,24.171-37.198,44.948-37.248c58.498-0.143,116.996-0.103,175.494-0.019
		c17.475,0.025,32.283,12.793,35.307,31.878c1.734,10.942,1.015,22.279,1.312,33.441
		C379.097,196.479,378.993,201.157,378.993,206.354z"/>
	<path fill="#B7B7B7" d="M338.86,142.471c-10.793-0.059-21.588-0.109-32.38,0.01c-5.204,0.057-7.886,2.88-7.848,8.185
		c0.038,5.299,0.008,10.598,0.006,15.896c0,5.299,0.083,10.599-0.023,15.896c-0.107,5.32,2.599,8.336,7.669,8.467
		c10.786,0.279,21.586,0.272,32.374,0.052c5.282-0.108,8.324-3.128,8.339-8.634c0.029-10.597,0.108-21.196-0.04-31.791
		C346.886,145.449,344.134,142.5,338.86,142.471z"/>
</g>
<g>
</g>
<g>
</g>
<g>
</g>
<g>
</g>
<g>
</g>
<g>
</g>
<g>
</g>
<g>
</g>
<g>
</g>
<g>
</g>
<g>
</g>
<g>
</g>
<g>
</g>
<g>
</g>
<g>
</g>
</svg>
