<?xml version="1.0" encoding="iso-8859-1"?>
<!-- Generator: Adobe Illustrator 19.0.0, SVG Export Plug-In . SVG Version: 6.00 Build 0)  -->
<svg xmlns="http://www.w3.org/2000/svg" xmlns:xlink="http://www.w3.org/1999/xlink" version="1.1" id="Layer_1" x="0px" y="0px" viewBox="0 0 480.004 480.004" style="enable-background:new 0 0 480.004 480.004;" xml:space="preserve" width="512px" height="512px">
<g>
	<g>
		<g>
			<path d="M242.458,173.571c-52.852,0-94.947,25.925-121.733,74.971C92.922,299.45,89.92,358.941,89.92,382.156     c0,23.728,4.575,45.537,12.882,61.41c10.223,19.534,26.238,30.292,45.095,30.292c34.276,0,51.596-17.422,65.512-31.42     c11.417-11.485,18.441-17.983,30.007-17.983c13.339,0,19.57,6.163,29.002,15.49c13.483,13.335,30.263,29.93,72.095,29.93     c31.152,0,50.505-33.612,50.505-87.719C395.019,301.512,353.6,173.571,242.458,173.571z M375.019,382.156     c0,33.707-9.433,67.719-30.505,67.719c-33.613,0-46.027-12.277-58.032-24.15c-10.081-9.97-21.507-21.27-43.065-21.27     c-20.449,0-32.519,12.141-44.191,23.882c-13.047,13.124-25.371,25.521-51.329,25.521c-26.234,0-37.977-36.012-37.977-71.702     c0-21.68,2.763-77.164,28.358-124.027c23.395-42.837,58.446-64.558,104.18-64.558c52.886,0,84.163,35.204,101.088,64.737     C363.254,292.693,375.019,338.992,375.019,382.156z" fill="#47b475"/>
			<path d="M132.998,186.134c-0.821-17.752-8.14-36.206-20.609-51.964c-17.141-21.66-40.882-34.591-63.508-34.591     c-11.521,0-22.034,3.498-30.405,10.118C5.728,119.78-0.805,135.786,0.079,154.765c0.827,17.746,8.151,36.197,20.622,51.956     c17.145,21.664,40.894,34.598,63.527,34.598c11.507,0,22.007-3.49,30.38-10.104C127.345,221.115,133.875,205.105,132.998,186.134     z M102.197,215.531c-4.861,3.84-10.907,5.787-17.969,5.787c-16.326,0-34.659-10.349-47.844-27.009     c-9.895-12.502-15.692-26.877-16.327-40.475c-0.576-12.369,3.268-22.473,10.825-28.45c4.871-3.852,10.926-5.805,17.999-5.805     c16.319,0,34.644,10.347,47.825,27.001C116.026,170.996,118.534,202.577,102.197,215.531z" fill="#47b475"/>
			<path d="M461.54,109.696c-8.37-6.619-18.886-10.117-30.412-10.117c-22.644,0-46.39,12.932-63.52,34.591     c-12.47,15.759-19.789,34.214-20.607,51.965c-0.875,18.974,5.662,34.984,18.414,45.088c8.355,6.604,18.855,10.095,30.366,10.095     c22.309,0,46.656-13.259,63.533-34.598c12.468-15.754,19.788-34.207,20.611-51.957     C480.806,135.79,474.279,119.787,461.54,109.696z M443.631,194.31c-13.176,16.659-31.51,27.007-47.848,27.007     c-7.064,0-13.108-1.946-17.955-5.778c-16.359-12.962-13.856-44.542,5.466-68.962c13.171-16.654,31.501-26.999,47.835-26.999     c7.078,0,13.135,1.953,18,5.799C465.472,138.326,462.955,169.892,443.631,194.31z" fill="#47b475"/>
			<path d="M292.563,168.368c1.981,0.275,4.005,0.415,6.014,0.415c0.002,0,0.003,0,0.004,0c30.268,0,58.456-31.354,65.568-72.932     c4.49-26.235-0.355-52.185-12.962-69.415c-8.25-11.276-19.17-18.147-31.563-19.868c-1.997-0.28-4.036-0.422-6.059-0.422     c-30.207,0-58.37,31.331-65.51,72.885c-4.488,26.24,0.354,52.199,12.954,69.44C269.25,159.75,280.158,166.63,292.563,168.368z      M267.767,82.412c5.421-31.55,25.538-56.265,45.798-56.265c1.097,0,2.201,0.077,3.295,0.23     c8.741,1.214,14.714,7.125,18.186,11.87c9.476,12.95,12.985,33.224,9.39,54.232c-5.401,31.575-25.544,56.307-45.857,56.305     c-1.092,0-2.189-0.076-3.251-0.224c-8.732-1.224-14.701-7.14-18.171-11.888C267.682,123.708,264.173,103.422,267.767,82.412z" fill="#47b475"/>
			<path d="M185.258,168.784c2.009,0,4.033-0.14,6.031-0.417c12.374-1.735,23.268-8.607,31.504-19.871     c12.606-17.239,17.463-43.204,12.99-69.47c-7.139-41.547-35.304-72.878-65.515-72.878c-2.023,0-4.061,0.142-6.046,0.42     c-12.404,1.722-23.319,8.59-31.566,19.861c-12.605,17.229-17.449,43.181-12.958,69.422     C126.809,137.429,154.994,168.784,185.258,168.784z M148.796,38.239c3.469-4.742,9.438-10.648,18.189-11.863     c1.081-0.152,2.185-0.229,3.282-0.229c20.264,0,40.383,24.714,45.802,56.25c3.581,21.032,0.06,41.328-9.42,54.293     c-3.467,4.741-9.428,10.648-18.125,11.869c-1.076,0.149-2.174,0.225-3.266,0.225c-20.308,0-40.446-24.732-45.847-56.306     C135.814,71.463,139.323,51.186,148.796,38.239z" fill="#47b475"/>
		</g>
	</g>
</g>
<g>
</g>
<g>
</g>
<g>
</g>
<g>
</g>
<g>
</g>
<g>
</g>
<g>
</g>
<g>
</g>
<g>
</g>
<g>
</g>
<g>
</g>
<g>
</g>
<g>
</g>
<g>
</g>
<g>
</g>
</svg>
